<?xml version="1.0" encoding="UTF-8" standalone="no"?>
<svg
   xmlns:dc="http://purl.org/dc/elements/1.1/"
   xmlns:cc="http://creativecommons.org/ns#"
   xmlns:rdf="http://www.w3.org/1999/02/22-rdf-syntax-ns#"
   xmlns:svg="http://www.w3.org/2000/svg"
   xmlns="http://www.w3.org/2000/svg"
   xmlns:sodipodi="http://sodipodi.sourceforge.net/DTD/sodipodi-0.dtd"
   xmlns:inkscape="http://www.inkscape.org/namespaces/inkscape"
   id="Layer_3"
   enable-background="new 0 0 64 64"
   height="512"
   viewBox="0 0 64 64"
   width="512"
   version="1.1"
   sodipodi:docname="pcb_config.svg"
   inkscape:version="0.92.4 (5da689c313, 2019-01-14)">
  <metadata
     id="metadata910">
    <rdf:RDF>
      <cc:Work
         rdf:about="">
        <dc:format>image/svg+xml</dc:format>
        <dc:type
           rdf:resource="http://purl.org/dc/dcmitype/StillImage" />
      </cc:Work>
    </rdf:RDF>
  </metadata>
  <defs
     id="defs908" />
  <sodipodi:namedview
     pagecolor="#ffffff"
     bordercolor="#666666"
     borderopacity="1"
     objecttolerance="10"
     gridtolerance="10"
     guidetolerance="10"
     inkscape:pageopacity="0"
     inkscape:pageshadow="2"
     inkscape:window-width="1920"
     inkscape:window-height="1017"
     id="namedview906"
     showgrid="false"
     inkscape:zoom="0.65186406"
     inkscape:cx="314.61455"
     inkscape:cy="114.0247"
     inkscape:window-x="1912"
     inkscape:window-y="-8"
     inkscape:window-maximized="1"
     inkscape:current-layer="Layer_3" />
  <g
     id="g903">
    <g
       id="g529">
      <path
         d="m7 2h55v52l-2 2v6h-53l-5-5v-50z"
         fill="#59ac98"
         id="path527" />
    </g>
    <g
       id="g533">
      <path
         d="m2 7v39.988c4.931 2.558 10.542 4.012 16.5 4.012 19.606 0 35.5-15.67 35.5-35 0-4.979-1.061-9.712-2.962-14h-44.038z"
         fill="#70ce90"
         id="path531" />
    </g>
    <g
       id="g537">
      <path
         d="m2 28h14v12h-14z"
         fill="#4d5d7a"
         id="path535" />
    </g>
    <g
       id="g541">
      <path
         d="m52 21h6v14h-6z"
         fill="#4d5d7a"
         id="path539" />
    </g>
    <g
       id="g545">
      <path
         d="m52 39h6v14h-6z"
         fill="#4d5d7a"
         id="path543" />
    </g>
    <g
       id="g549">
      <path
         d="m36 34h12v8h-12z"
         fill="#4d5d7a"
         id="path547" />
    </g>
    <g
       id="g553">
      <path
         d="m60 63h-53c-.265 0-.52-.105-.707-.293l-5-5c-.188-.187-.293-.442-.293-.707v-50c0-.265.105-.52.293-.707l5-5c.187-.188.442-.293.707-.293h55c.552 0 1 .448 1 1v52c0 .265-.105.52-.293.707l-1.707 1.707v5.586c0 .552-.448 1-1 1zm-52.586-2h51.586v-5c0-.265.105-.52.293-.707l1.707-1.707v-50.586h-53.586l-4.414 4.414v49.172z"
         id="path551" />
    </g>
    <g
       id="g557">
      <path
         d="m8 37c-1.654 0-3-1.346-3-3s1.346-3 3-3 3 1.346 3 3-1.346 3-3 3zm0-4c-.551 0-1 .449-1 1s.449 1 1 1 1-.449 1-1-.449-1-1-1z"
         id="path555" />
    </g>
    <g
       id="g561">
      <path
         d="m16 37c-1.654 0-3-1.346-3-3s1.346-3 3-3 3 1.346 3 3-1.346 3-3 3zm0-4c-.551 0-1 .449-1 1s.449 1 1 1 1-.449 1-1-.449-1-1-1z"
         id="path559" />
    </g>
    <g
       id="g565">
      <path
         d="m12 43c-1.654 0-3-1.346-3-3s1.346-3 3-3 3 1.346 3 3-1.346 3-3 3zm0-4c-.551 0-1 .449-1 1s.449 1 1 1 1-.449 1-1-.449-1-1-1z"
         id="path563" />
    </g>
    <g
       id="g569">
      <path
         d="m57 5h2v2h-2z"
         id="path567" />
    </g>
    <g
       id="g573">
      <path
         d="m57 9h2v4h-2z"
         id="path571" />
    </g>
    <g
       id="g577">
      <path
         d="m57 15h2v2h-2z"
         id="path575" />
    </g>
    <g
       id="g581">
      <path
         d="m53 5h2v2h-2z"
         id="path579" />
    </g>
    <g
       id="g585">
      <path
         d="m53 9h2v4h-2z"
         id="path583" />
    </g>
    <g
       id="g589">
      <path
         d="m53 15h2v2h-2z"
         id="path587" />
    </g>
    <g
       id="g593">
      <path
         d="m49 5h2v2h-2z"
         id="path591" />
    </g>
    <g
       id="g597">
      <path
         d="m49 9h2v4h-2z"
         id="path595" />
    </g>
    <g
       id="g601">
      <path
         d="m49 15h2v2h-2z"
         id="path599" />
    </g>
    <g
       id="g605">
      <path
         d="m45 5h2v2h-2z"
         id="path603" />
    </g>
    <g
       id="g609">
      <path
         d="m45 9h2v4h-2z"
         id="path607" />
    </g>
    <g
       id="g613">
      <path
         d="m45 15h2v2h-2z"
         id="path611" />
    </g>
    <g
       id="g617">
      <path
         d="m41 5h2v2h-2z"
         id="path615" />
    </g>
    <g
       id="g621">
      <path
         d="m41 9h2v4h-2z"
         id="path619" />
    </g>
    <g
       id="g625">
      <path
         d="m41 15h2v2h-2z"
         id="path623" />
    </g>
    <g
       id="g629">
      <path
         d="m37 5h2v2h-2z"
         id="path627" />
    </g>
    <g
       id="g633">
      <path
         d="m37 9h2v4h-2z"
         id="path631" />
    </g>
    <g
       id="g637">
      <path
         d="m37 15h2v2h-2z"
         id="path635" />
    </g>
    <g
       id="g641">
      <path
         d="m33 5h2v2h-2z"
         id="path639" />
    </g>
    <g
       id="g645">
      <path
         d="m33 9h2v4h-2z"
         id="path643" />
    </g>
    <g
       id="g649">
      <path
         d="m33 15h2v2h-2z"
         id="path647" />
    </g>
    <g
       id="g653">
      <path
         d="m29 5h2v2h-2z"
         id="path651" />
    </g>
    <g
       id="g657">
      <path
         d="m29 9h2v4h-2z"
         id="path655" />
    </g>
    <g
       id="g661">
      <path
         d="m29 15h2v2h-2z"
         id="path659" />
    </g>
    <g
       id="g665">
      <path
         d="m25 5h2v2h-2z"
         id="path663" />
    </g>
    <g
       id="g669">
      <path
         d="m25 9h2v4h-2z"
         id="path667" />
    </g>
    <g
       id="g673">
      <path
         d="m25 15h2v2h-2z"
         id="path671" />
    </g>
    <g
       id="g677">
      <path
         d="m21 5h2v2h-2z"
         id="path675" />
    </g>
    <g
       id="g681">
      <path
         d="m21 9h2v4h-2z"
         id="path679" />
    </g>
    <g
       id="g685">
      <path
         d="m21 15h2v2h-2z"
         id="path683" />
    </g>
    <g
       id="g689">
      <path
         d="m17 5h2v2h-2z"
         id="path687" />
    </g>
    <g
       id="g693">
      <path
         d="m17 9h2v4h-2z"
         id="path691" />
    </g>
    <g
       id="g697">
      <path
         d="m17 15h2v2h-2z"
         id="path695" />
    </g>
    <g
       id="g701">
      <path
         d="m13 5h2v2h-2z"
         id="path699" />
    </g>
    <g
       id="g705">
      <path
         d="m13 9h2v4h-2z"
         id="path703" />
    </g>
    <g
       id="g709">
      <path
         d="m13 15h2v2h-2z"
         id="path707" />
    </g>
    <g
       id="g713">
      <path
         d="m29 47h2v2h-2z"
         id="path711" />
    </g>
    <g
       id="g717">
      <path
         d="m29 51h2v4h-2z"
         id="path715" />
    </g>
    <g
       id="g721">
      <path
         d="m29 57h2v2h-2z"
         id="path719" />
    </g>
    <g
       id="g725">
      <path
         d="m25 47h2v2h-2z"
         id="path723" />
    </g>
    <g
       id="g729">
      <path
         d="m25 51h2v4h-2z"
         id="path727" />
    </g>
    <g
       id="g733">
      <path
         d="m25 57h2v2h-2z"
         id="path731" />
    </g>
    <g
       id="g737">
      <path
         d="m21 47h2v2h-2z"
         id="path735" />
    </g>
    <g
       id="g741">
      <path
         d="m21 51h2v4h-2z"
         id="path739" />
    </g>
    <g
       id="g745">
      <path
         d="m21 57h2v2h-2z"
         id="path743" />
    </g>
    <g
       id="g749">
      <path
         d="m17 47h2v2h-2z"
         id="path747" />
    </g>
    <g
       id="g753">
      <path
         d="m17 51h2v4h-2z"
         id="path751" />
    </g>
    <g
       id="g757">
      <path
         d="m17 57h2v2h-2z"
         id="path755" />
    </g>
    <g
       id="g761">
      <path
         d="m13 47h2v2h-2z"
         id="path759" />
    </g>
    <g
       id="g765">
      <path
         d="m13 51h2v4h-2z"
         id="path763" />
    </g>
    <g
       id="g769">
      <path
         d="m13 57h2v2h-2z"
         id="path767" />
    </g>
    <g
       id="g773">
      <path
         d="m58 36h-6c-.552 0-1-.448-1-1v-14c0-.552.448-1 1-1h6c.552 0 1 .448 1 1v14c0 .552-.448 1-1 1zm-5-2h4v-12h-4z"
         id="path771" />
    </g>
    <g
       id="g777">
      <path
         d="m58 54h-6c-.552 0-1-.448-1-1v-14c0-.552.448-1 1-1h6c.552 0 1 .448 1 1v14c0 .552-.448 1-1 1zm-5-2h4v-12h-4z"
         id="path775" />
    </g>
    <g
       id="g781">
      <path
         d="m48 43h-12c-.552 0-1-.448-1-1v-8c0-.552.448-1 1-1h12c.552 0 1 .448 1 1v8c0 .552-.448 1-1 1zm-11-2h10v-6h-10z"
         id="path779" />
    </g>
    <g
       id="g785">
      <path
         d="m45 29h2v5h-2z"
         id="path783" />
    </g>
    <g
       id="g789">
      <path
         d="m41 29h2v5h-2z"
         id="path787" />
    </g>
    <g
       id="g793">
      <path
         d="m37 29h2v5h-2z"
         id="path791" />
    </g>
    <g
       id="g797">
      <path
         d="m45 42h2v5h-2z"
         id="path795" />
    </g>
    <g
       id="g801">
      <path
         d="m41 53h-2v-4c0-.265.105-.52.293-.707l1.707-1.707v-4.586h2v5c0 .265-.105.52-.293.707l-1.707 1.707z"
         id="path799" />
    </g>
    <g
       id="g805">
      <path
         d="m37 42h2v5h-2z"
         id="path803" />
    </g>
    <g
       id="g809">
      <path
         d="m54 23h2v2h-2z"
         id="path807" />
    </g>
    <g
       id="g813">
      <path
         d="m54 31h2v2h-2z"
         id="path811" />
    </g>
    <g
       id="g817">
      <path
         d="m54 41h2v2h-2z"
         id="path815" />
    </g>
    <g
       id="g821">
      <path
         d="m54 49h2v2h-2z"
         id="path819" />
    </g>
    <g
       id="g825">
      <path
         d="m2 39h8v2h-8z"
         id="path823" />
    </g>
    <g
       id="g829">
      <path
         d="m16 41h-2v-2h1v-3h2v4c0 .552-.448 1-1 1z"
         id="path827" />
    </g>
    <g
       id="g833">
      <path
         d="m17 32h-2v-3h-13v-2h14c.552 0 1 .448 1 1z"
         id="path831" />
    </g>
    <g
       id="g837">
      <path
         d="m22 19h2v2h-2z"
         id="path835" />
    </g>
    <g
       id="g841">
      <path
         d="m31 19h2v2h-2z"
         id="path839" />
    </g>
    <g
       id="g845">
      <path
         d="m22 29h2v2h-2z"
         id="path843" />
    </g>
    <g
       id="g849">
      <path
         d="m31 29h2v2h-2z"
         id="path847" />
    </g>
    <g
       id="g853">
      <path
         d="m25 19h5v2h-5z"
         id="path851" />
    </g>
    <g
       id="g857">
      <path
         d="m31 22h2v6h-2z"
         id="path855" />
    </g>
    <g
       id="g861">
      <path
         d="m25 29h5v2h-5z"
         id="path859" />
    </g>
    <g
       id="g865">
      <path
         d="m22 22h2v6h-2z"
         id="path863" />
    </g>
    <g
       id="g869">
      <path
         d="m38 25c-1.654 0-3-1.346-3-3s1.346-3 3-3 3 1.346 3 3-1.346 3-3 3zm0-4c-.551 0-1 .449-1 1s.449 1 1 1 1-.449 1-1-.449-1-1-1z"
         id="path867" />
    </g>
    <g
       id="g873">
      <path
         d="m46 25c-1.654 0-3-1.346-3-3s1.346-3 3-3 3 1.346 3 3-1.346 3-3 3zm0-4c-.551 0-1 .449-1 1s.449 1 1 1 1-.449 1-1-.449-1-1-1z"
         id="path871" />
    </g>
    <g
       id="g877">
      <path
         d="m28 45h-4v-2h3.586l1.707-1.707c.187-.188.442-.293.707-.293h6v2h-5.586l-1.707 1.707c-.187.188-.442.293-.707.293z"
         id="path875" />
    </g>
    <g
       id="g881">
      <path
         d="m26 41h-4v-2h3.586l1.707-1.707c.187-.188.442-.293.707-.293h8v2h-7.586l-1.707 1.707c-.187.188-.442.293-.707.293z"
         id="path879" />
    </g>
    <g
       id="g885">
      <path
         d="m28 33h8v2h-8z"
         id="path883" />
    </g>
    <g
       id="g889">
      <path
         d="m9 53h-2v-4.586l-1.707-1.707c-.188-.187-.293-.442-.293-.707v-6h2v5.586l1.707 1.707c.188.187.293.442.293.707z"
         id="path887" />
    </g>
    <g
       id="g893">
      <path
         d="m7 28h-2v-4c0-.265.105-.52.293-.707l1.707-1.707v-4.586h2v5c0 .265-.105.52-.293.707l-1.707 1.707z"
         id="path891" />
    </g>
    <g
       id="g897">
      <path
         d="m11 22h2v6h-2z"
         id="path895" />
    </g>
    <g
       id="g901">
      <path
         d="m17 28h-2v-3c0-.265.105-.52.293-.707l1.707-1.707v-3.586h2v4c0 .265-.105.52-.293.707l-1.707 1.707z"
         id="path899" />
    </g>
  </g>
  <g
     id="g12"
     transform="matrix(0.05138066,0,0,0.0509804,36.791102,38.01859)">
    <g
       id="g10">
      <path
         inkscape:connector-curvature="0"
         d="m 500.582,211.434 -58.674,-14.428 c -3.532,-11.13 -8.068,-21.925 -13.551,-32.249 8.78,-14.634 27.343,-45.573 27.343,-45.573 3.541,-5.902 2.611,-13.457 -2.256,-18.324 L 411.018,58.434 c -4.867,-4.867 -12.422,-5.797 -18.324,-2.256 -0.38,0.228 -30.777,18.466 -45.626,27.355 C 336.799,78.102 326.073,73.606 315.016,70.099 310.588,52.123 300.565,11.413 300.564,11.413 298.914,4.711 292.902,0 286,0 h -60 c -6.903,0 -12.915,4.711 -14.565,11.414 -4.126,16.76 -11.024,44.779 -14.45,58.68 -11.762,3.73 -23.143,8.578 -34.001,14.482 -6.428,-3.856 -16.007,-9.604 -24.869,-14.921 L 115.653,56.178 c -5.905,-3.541 -13.457,-2.61 -18.324,2.256 L 54.901,100.86 c -4.867,4.867 -5.797,12.422 -2.256,18.324 0.2,0.335 17.785,29.644 29.271,48.869 -4.712,9.31 -8.665,18.986 -11.817,28.919 -20.002,4.976 -58.223,14.35 -58.671,14.46 C 4.718,213.077 0,219.092 0,226 v 60 c 0,6.909 4.719,12.923 11.429,14.568 0.443,0.109 38.381,9.411 58.687,14.436 3.565,11.302 8.184,22.273 13.796,32.78 l -26.194,43.66 c -3.541,5.902 -2.611,13.458 2.256,18.324 l 42.427,42.427 c 4.867,4.868 12.421,5.797 18.324,2.256 0.369,-0.222 29.463,-17.678 43.746,-26.227 10.419,5.547 21.313,10.131 32.547,13.692 l 14.416,58.66 C 213.079,507.284 219.093,512 226,512 h 60 c 6.904,0 12.917,-4.713 14.566,-11.418 l 14.427,-58.669 c 11.539,-3.661 22.671,-8.39 33.257,-14.128 14.427,8.656 44.444,26.667 44.444,26.667 5.901,3.541 13.457,2.612 18.324,-2.256 l 42.426,-42.427 c 4.867,-4.867 5.797,-12.422 2.256,-18.324 0,0 -18.271,-30.452 -26.958,-44.931 5.308,-10.088 9.712,-20.634 13.161,-31.511 17.824,-4.399 58.19,-14.317 58.676,-14.436 C 507.285,298.919 512,292.906 512,286 v -60 c 0,-6.905 -4.713,-12.917 -11.418,-14.566 z M 482,274.24 c -17.32,4.257 -48.723,11.979 -54.72,13.479 l -1.131,0.283 c -5.231,1.36 -9.326,5.43 -10.719,10.653 -3.795,14.229 -9.495,27.872 -16.942,40.548 -2.779,4.732 -2.753,10.605 0.069,15.312 0.78,1.301 16.489,27.483 25.393,42.322 L 398.087,422.7 c -15.046,-9.027 -41.716,-25.029 -41.942,-25.165 -4.775,-2.866 -10.743,-2.853 -15.501,0.035 -13,7.885 -27.109,13.892 -41.938,17.854 -5.177,1.383 -9.224,5.422 -10.614,10.597 -0.828,3.081 -1.644,6.34 -1.658,6.397 L 274.241,482 h -36.479 l -10.813,-44.042 -2.916,-11.664 c -1.322,-5.292 -5.415,-9.45 -10.686,-10.855 -14.533,-3.876 -28.479,-9.747 -41.449,-17.447 -4.709,-2.797 -10.57,-2.802 -15.285,-0.018 -3.23,1.908 -27.254,16.313 -41.282,24.728 l -25.865,-25.865 24.661,-41.104 c 2.841,-4.736 2.85,-10.65 0.022,-15.395 -7.784,-13.063 -13.685,-27.073 -17.535,-41.643 -1.397,-5.286 -5.56,-9.393 -10.863,-10.719 -10.737,-2.684 -39.564,-9.767 -55.752,-13.741 v -36.473 c 16.342,-4.015 45.537,-11.199 55.762,-13.786 5.271,-1.334 9.408,-5.417 10.812,-10.671 3.564,-13.347 8.822,-26.228 15.63,-38.286 2.646,-4.686 2.578,-10.43 -0.177,-15.053 -7.25,-12.166 -20.08,-33.577 -27.632,-46.172 l 25.865,-25.866 12.42,7.452 c 14.968,8.981 31.98,19.188 32.44,19.463 4.768,2.85 10.722,2.832 15.472,-0.049 13.341,-8.088 27.726,-14.222 42.756,-18.232 5.264,-1.404 9.352,-5.552 10.68,-10.836 0.282,-1.121 9.071,-36.815 13.728,-55.726 h 36.49 c 4.915,19.958 13.621,55.312 13.724,55.722 1.326,5.288 5.417,9.44 10.685,10.845 14.382,3.836 28.193,9.626 41.05,17.208 4.714,2.781 10.57,2.773 15.276,-0.021 4.208,-2.498 28.881,-17.293 43.106,-25.827 l 25.864,25.864 c -9.037,15.062 -25.121,41.869 -25.795,42.991 -2.836,4.725 -2.853,10.625 -0.043,15.367 7.628,12.872 13.451,26.714 17.308,41.141 1.382,5.167 5.408,9.207 10.57,10.604 3.097,0.839 6.373,1.657 6.428,1.671 L 482,237.758 Z"
         id="path8-0"
         style="fill:#00a0e4;fill-opacity:1;stroke:#00a0e4;stroke-opacity:1" />
    </g>
  </g>
  <path
     style="fill:#00a0e4;fill-opacity:1;stroke:#00a0e4;stroke-width:0.33762872;stroke-miterlimit:4;stroke-dasharray:none;stroke-opacity:1"
     d="m 48.681036,61.091273 c -0.23774,-1.009649 -0.408247,-1.548606 -0.532257,-1.682422 -0.100354,-0.108289 -0.464956,-0.286333 -0.810227,-0.395654 -0.345272,-0.109321 -0.939633,-0.353283 -1.320804,-0.542136 -0.38117,-0.188854 -0.7467,-0.343371 -0.812291,-0.343371 -0.06559,0 -0.637906,0.300316 -1.271813,0.667368 -0.633906,0.367052 -1.177477,0.667367 -1.207934,0.667367 -0.03046,0 -0.330872,-0.27546 -0.667588,-0.612133 l -0.612211,-0.612133 0.681877,-1.138664 c 0.375032,-0.626266 0.681877,-1.225698 0.681877,-1.332069 0,-0.106371 -0.139984,-0.455132 -0.311075,-0.775024 -0.171092,-0.319893 -0.417042,-0.896526 -0.546558,-1.281408 -0.129514,-0.384882 -0.294697,-0.765736 -0.367071,-0.846341 -0.07734,-0.08613 -0.757886,-0.301425 -1.650626,-0.522183 L 38.4153,51.966842 v -0.90544 -0.905439 l 1.451263,-0.352024 c 0.798195,-0.193613 1.543883,-0.424298 1.657086,-0.512632 0.113202,-0.08833 0.266479,-0.363266 0.340613,-0.61096 0.07414,-0.247693 0.30087,-0.80808 0.503856,-1.245303 0.251964,-0.542721 0.351982,-0.862483 0.315226,-1.007788 -0.02961,-0.11706 -0.312935,-0.640836 -0.629609,-1.163945 L 41.127321,43.819854 41.69541,43.42627 c 0.230575,-0.181385 0.301416,-0.296284 0.486255,-0.500033 0.184839,-0.203748 -0.194772,-0.684716 0.466654,-0.437188 0.332124,0.124292 0.82287,0.662918 1.312766,0.95656 0.585956,0.351219 0.986965,0.533894 1.172014,0.533894 0.154712,0 0.59316,-0.154517 0.974331,-0.34337 0.38117,-0.188855 0.964981,-0.432219 1.297357,-0.540811 0.345641,-0.112925 0.673389,-0.284563 0.765678,-0.400975 0.08875,-0.111946 0.255922,-0.600987 0.371497,-1.086758 l 0.465148,-2.059587 0.918922,0.04548 0.955958,-0.04548 0.479669,2.100049 c 0.11533,0.504927 0.286551,0.992823 0.371737,1.086219 0.08519,0.0934 0.4226,0.256596 0.749809,0.362666 0.32721,0.10607 0.915604,0.351473 1.307545,0.54534 0.500568,0.247598 0.783981,0.338323 0.952443,0.304893 0.131902,-0.02618 0.719244,-0.334315 1.305201,-0.684755 0.585959,-0.35044 1.088554,-0.65081 1.116879,-0.667487 0.02833,-0.01668 0.339835,0.257996 0.692241,0.610386 l 0.640739,0.640711 -0.71466,1.195591 c -0.393064,0.657575 -0.714661,1.252993 -0.714661,1.323149 0,0.07016 0.177772,0.49315 0.39505,0.939985 0.217277,0.446833 0.460834,1.037735 0.541237,1.313112 0.0804,0.275379 0.223277,0.56991 0.317498,0.654515 0.09448,0.08484 0.847192,0.321631 1.678366,0.527991 l 1.507054,0.374165 0.02544,0.895741 0.02544,0.895743 -1.441772,0.339029 c -0.792975,0.186467 -1.551015,0.404954 -1.684532,0.485528 -0.182038,0.109853 -0.296074,0.311576 -0.455893,0.80644 -0.117222,0.362967 -0.349271,0.929226 -0.515665,1.25835 -0.166394,0.329125 -0.302534,0.723889 -0.302534,0.877253 0,0.189462 0.217446,0.63684 0.678373,1.395693 l 0.678374,1.116851 -0.608707,0.608629 c -0.334791,0.334747 -0.642207,0.60863 -0.683148,0.60863 -0.04094,0 -0.583843,-0.300315 -1.206444,-0.667367 -0.622601,-0.367053 -1.206516,-0.667368 -1.297589,-0.667368 -0.09107,0 -0.477454,0.15537 -0.858623,0.345267 -0.381171,0.189897 -0.894819,0.411279 -1.141442,0.491961 -0.80296,0.262683 -0.948387,0.341221 -1.068008,0.576777 -0.06485,0.127692 -0.273495,0.86283 -0.463666,1.633639 l -0.345765,1.401471 h -0.905569 -0.905568 z m 2.536535,-4.788077 c 1.502827,-0.351571 2.914983,-1.48945 3.588555,-2.891568 0.199841,-0.415992 0.407339,-0.968541 0.461108,-1.227887 0.239023,-1.152908 0.02043,-2.622844 -0.549332,-3.694076 -0.432591,-0.813324 -1.473106,-1.808856 -2.324478,-2.223989 -1.391759,-0.678629 -2.85696,-0.764773 -4.274776,-0.251329 -2.653086,0.960783 -4.119233,3.683356 -3.427886,6.365442 0.257986,1.000852 0.657601,1.687362 1.434079,2.463632 0.728879,0.728684 1.623926,1.24611 2.533543,1.464644 0.648741,0.155859 1.882173,0.153512 2.559187,-0.0049 z"
     id="path896"
     inkscape:connector-curvature="0"
     sodipodi:nodetypes="ssscssssccssscscccscsscscccssssccscccsscscssscsssccscccsccsssccsssccsscccscscsssssccc" />
</svg>
