<?xml version="1.0" encoding="UTF-8" standalone="no"?>
<svg
   xmlns:dc="http://purl.org/dc/elements/1.1/"
   xmlns:cc="http://creativecommons.org/ns#"
   xmlns:rdf="http://www.w3.org/1999/02/22-rdf-syntax-ns#"
   xmlns:svg="http://www.w3.org/2000/svg"
   xmlns="http://www.w3.org/2000/svg"
   xmlns:sodipodi="http://sodipodi.sourceforge.net/DTD/sodipodi-0.dtd"
   xmlns:inkscape="http://www.inkscape.org/namespaces/inkscape"
   height="512pt"
   viewBox="0 -138 512.00024 512"
   width="512pt"
   version="1.1"
   id="svg64"
   sodipodi:docname="handshake.svg"
   inkscape:version="0.92.4 (5da689c313, 2019-01-14)">
  <metadata
     id="metadata70">
    <rdf:RDF>
      <cc:Work
         rdf:about="">
        <dc:format>image/svg+xml</dc:format>
        <dc:type
           rdf:resource="http://purl.org/dc/dcmitype/StillImage" />
        <dc:title />
      </cc:Work>
    </rdf:RDF>
  </metadata>
  <defs
     id="defs68" />
  <sodipodi:namedview
     pagecolor="#ffffff"
     bordercolor="#666666"
     borderopacity="1"
     objecttolerance="10"
     gridtolerance="10"
     guidetolerance="10"
     inkscape:pageopacity="0"
     inkscape:pageshadow="2"
     inkscape:window-width="1920"
     inkscape:window-height="1017"
     id="namedview66"
     showgrid="false"
     inkscape:zoom="3.9111844"
     inkscape:cx="528.26727"
     inkscape:cy="224.76504"
     inkscape:window-x="-8"
     inkscape:window-y="-8"
     inkscape:window-maximized="1"
     inkscape:current-layer="svg64" />
  <g
     fill="#f0f2fa"
     id="g24">
    <path
       d="m401.945312 165.363281c-13.277343 0-25.917968-4.6875-34.679687-12.855469-16.320313-15.222656-20.382813-42.4375-9.445313-63.304687 4.414063-8.417969 12.585938-17.160156 22.421876-23.984375 10.722656-7.4375 22.042968-11.609375 31.878906-11.753906.125-.011719.324218-.011719.519531-.011719 15.597656 0 31.398437 10.660156 39.320313 26.527344l.210937.421875v.644531c.050781.4375.285156.886719.667969 1.230469l.332031.296875.171875.410156c1.828125 4.320313 3.105469 8.921875 3.808594 13.679687 3.40625 23.300782-7.289063 48.101563-26.019532 60.304688-8.3125 5.414062-18.679687 8.394531-29.1875 8.394531zm10.347657-84.875c-.800781 0-1.613281.046875-2.414063.132813-9.980468 1.082031-19.429687 6.574218-25.285156 14.691406-4.984375 6.925781-6.785156 15.09375-5.070312 23.007812 2.308593 10.585938 11.117187 18.953126 21.425781 20.339844 1.078125.148438 2.183593.222656 3.28125.222656 6.269531 0 12.730469-2.28125 18.6875-6.597656 6.550781-4.757812 11.273437-11.148437 13.296875-17.996094 2.421875-8.1875.25-17.679687-5.667969-24.773437-4.859375-5.820313-11.339844-9.027344-18.253906-9.027344zm0 0"
       id="path2" />
    <path
       d="m320.53125 134.414062c-5.421875 0-10.71875-.78125-15.746094-2.328124-5.417968-1.652344-10.617187-4.242188-15.453125-7.695313l-1.855469-1.320313 1.550782-1.667968c11.472656-12.355469 16.851562-30.390625 14.03125-47.066406l-.511719-3.039063 52.371094 13.546875-.539063 2.191406-.15625.289063c-5.945312 11.328125-7.929687 24.800781-5.589844 37.9375l.246094 1.390625-1.226562.699218c-8.121094 4.621094-17.5 7.0625-27.121094 7.0625zm0 0"
       id="path4" />
    <path
       d="m271.464844 225.78125c-4.050782 0-8.339844-1.621094-11.472656-4.335938-3.375-2.921874-6.007813-7.113281-7.824219-12.457031l-1.214844-3.578125 3.640625 1.003906c2.617188.722657 5.324219 1.089844 8.046875 1.089844 7.253906 0 14.222656-2.441406 19.621094-6.875l3.113281-2.558594.15625 4.027344c.300781 7.804688-1.285156 17.523438-6.632812 21.402344-2.0625 1.492188-4.632813 2.28125-7.433594 2.28125zm0 0"
       id="path6" />
    <path
       d="m262.609375 203.410156c-4.160156 0-8.183594-.949218-11.632813-2.742187l-.941406-.492188-.121094-1.058593c-.851562-7.53125.589844-13.382813 4.171876-16.917969 2.511718-2.480469 5.875-3.796875 9.726562-3.796875 1.335938 0 2.738281.160156 4.164062.480468 7.121094 1.609376 13.605469 6.933594 15.777344 12.941407.078125.226562.152344.441406.214844.667969l.496094 1.792968-1.753906.621094c-.335938.121094-.613282.292969-.820313.515625-4.679687 5-11.886719 7.988281-19.28125 7.988281zm0 0"
       id="path8" />
    <path
       d="m240.625 229.535156c-.855469 0-1.707031-.066406-2.539062-.195312-5.941407-.9375-11.554688-5.074219-14.652344-10.792969-1.066406-1.960937-1.867188-4.117187-2.382813-6.40625l-.890625-3.953125 3.679688 1.699219c3.082031 1.421875 6.554687 2.175781 10.039062 2.175781 4.101563 0 8.085938-1.023438 11.519532-2.960938l2.101562-1.1875.773438 2.285157c1.398437 4.128906 3.253906 7.6875 5.519531 10.582031l.941406 1.199219-.910156 1.226562c-2.898438 3.902344-7.960938 6.328125-13.199219 6.328125zm0 0"
       id="path10" />
    <path
       d="m233.886719 207.984375c-3.980469 0-7.875-1.15625-10.96875-3.253906-.121094-.082031-.304688-.164063-.558594-.25l-.835937-.277344-.359376-.808594c-.039062-.085937-.074218-.175781-.117187-.257812l-.035156-.046875-.101563-.183594-.285156-.558594.085938-.625c.085937-.628906.183593-1.261718.308593-1.902344 1.34375-6.507812 4.683594-11.601562 9.164063-13.984374 1.632812-.871094 3.6875-1.328126 5.9375-1.328126 4.09375 0 7.84375 1.488282 9.550781 3.796876l.507813.6875-.148438.84375c-.667969 3.851562-.550781 8.222656.347656 12.988281l.421875 2.253906-2.289062.113281c-.332031.015625-.621094.097656-.886719.253906-2.851562 1.660157-6.222656 2.539063-9.738281 2.539063zm0 0"
       id="path12" />
    <path
       d="m219.453125 132.433594c-11.320313 0-22.671875-3.484375-31.957031-9.816406l-2.230469-1.519532 34.308594-27.640625 1.195312.703125c11.28125 6.664063 19.398438 18.875 21.183594 31.859375l.210937 1.523438-1.417968.59375c-3.695313 1.546875-7.484375 2.683593-11.261719 3.382812-3.277344.609375-6.65625.914063-10.03125.914063zm0 0"
       id="path14" />
    <path
       d="m207.585938 227.027344c-5.976563 0-11.519532-2.300782-15.207032-6.308594-3.050781-3.320312-4.847656-7.878906-5.058594-12.839844l-.152343-3.65625 3.160156 1.84375c4.492187 2.621094 9.648437 4.007813 14.914063 4.007813 2.980468 0 5.941406-.453125 8.792968-1.339844l2.265625-.703125.3125 2.351562c.484375 3.625 1.574219 7.027344 3.246094 10.109376l1.070313 1.785156-1.480469 1.074218c-3.261719 2.371094-7.472657 3.675782-11.863281 3.675782zm0 0"
       id="path16" />
    <path
       d="m205.238281 205.972656c-5.707031 0-11.183593-1.820312-15.425781-5.125-.050781-.03125-.097656-.0625-.144531-.097656l-1.269531-.941406.625-1.453125c.839843-1.964844 1.945312-3.707031 3.277343-5.167969 3.640625-4.003906 9.363281-6.394531 15.300781-6.394531 3.988282 0 7.746094 1.039062 10.867188 3.007812l1.484375.9375-.738281 1.597657c-.953125 2.050781-1.683594 4.292968-2.175782 6.65625-.207031 1-.375 2.085937-.511718 3.3125l-.128906 1.152343-1.0625.460938c-3.09375 1.34375-6.585938 2.054687-10.097657 2.054687zm0 0"
       id="path18" />
    <path
       d="m182.691406 199.824219c-4.78125 0-9.398437-2.84375-11.523437-7.089844l-.058594-.089844-.789063-1.304687 1.054688-1.105469c1.441406-1.511719 3.082031-2.679687 4.875-3.464844 1.683594-.738281 3.421875-1.128906 5.023438-1.128906.730468 0 1.4375.078125 2.097656.238281 2.238281.53125 4.105468 2.078125 4.777344 3.957032.035156.0625.0625.121093.089843.183593l.480469 1.078125-.710938.941406c-1.414062 1.875-2.550781 4.039063-3.375 6.433594l-.460937 1.34375zm0 0"
       id="path20" />
    <path
       d="m182.703125 217.992188c-7.027344-.171876-13.730469-5.257813-15.59375-11.824219-.605469-2.128907-.714844-4.394531-.320313-6.734375l.671876-3.988282 2.761718 2.949219c2.933594 3.132813 7.023438 5.117188 11.214844 5.445313l1.914062.148437-.070312 1.917969c-.125 3.28125.332031 6.453125 1.359375 9.433594l.941406 2.722656zm0 0"
       id="path22" />
  </g>
  <path
     d="m337.980469 181.011719c-.972657-2.074219-2.425781-3.855469-3.386719-5.035157l-2.519531-3.082031 1.867187-1.21875c9.675782-6.300781 20.84375-10.328125 32.292969-11.648437.335937-.042969.664063-.175782.976563-.414063l1.167968-.875 1.191406.84375c2.425782 1.726563 4.976563 3.230469 7.570313 4.464844l2.773437 1.320313-2.328124 2c-10.359376 8.910156-24.109376 14.300781-37.722657 14.792968l-1.320312.046875zm0 0"
     fill="#696b77"
     id="path26" />
  <path
     d="m320.496094 158.648438 3.03125-.773438c10.503906-2.675781 20.808594-7.261719 29.804687-13.265625l1.726563-1.152344 1.085937 1.769531c1.800781 2.921876 3.882813 5.644532 6.191407 8.082032l2.550781 2.703125-3.660157.640625c-10.714843 1.882812-21.15625 6.0625-30.195312 12.078125l-1.511719 1.003906zm0 0"
     fill="#696b77"
     id="path28" />
  <path
     d="m301.828125 135.710938 5.671875 1.304687c4.1875.960937 8.5625 1.449219 13 1.449219 9.570312 0 18.992188-2.265625 27.25-6.546875l2.097656-1.089844.726563 2.25c.546875 1.695313 1.1875 3.394531 1.957031 5.1875l.648438 1.511719-1.359376.929687c-9.523437 6.5-20.453124 11.265625-31.609374 13.789063-.175782.042968-.398438.140625-.644532.289062l-1.488281.898438zm0 0"
     fill="#696b77"
     id="path30" />
  <path
     d="m102.328125 172.84375 23.746094-120.25 31.128906 15.265625-33.972656 111.328125zm0 0"
     fill="#fff"
     id="path32" />
  <path
     d="m289.4375 208.71875.117188-2.097656c.324218-5.792969-.414063-11.835938-1.984376-16.167969-2.648437-7.355469-10.160156-13.59375-18.691406-15.527344-1.691406-.386719-3.382812-.582031-5.027344-.582031-4.964843 0-9.332031 1.71875-12.625 4.972656-.933593.917969-1.75 1.949219-2.492187 3.15625l-1.074219 1.746094-1.71875-1.117188c-2.632812-1.714843-6.085937-2.660156-9.714844-2.660156-2.9375 0-5.765624.640625-7.953124 1.808594-1.800782.960938-3.464844 2.265625-4.949219 3.878906l-1.136719 1.234375-1.414062-.90625c-3.789063-2.421875-8.332032-3.703125-13.140626-3.703125-5.027343 0-10.015624 1.449219-14.046874 4.085938l-1.632813 1.0625-1.105469-1.601563c-1.476562-2.136719-3.851562-3.730469-6.523437-4.371093-.984375-.238282-2.015625-.359376-3.066407-.359376-2.167968 0-4.402343.496094-6.644531 1.476563-4.253906 1.875-7.796875 5.386719-9.96875 9.894531l-.65625 1.367188-1.492187-.265625c-12.601563-2.234375-24.332032-8.613281-33.027344-17.957031l-.785156-.84375 29.730468-97.402344 1.792969.378906c3.832031.804688 7.785157 1.214844 11.746094 1.214844 9.320313 0 18.511719-2.207032 26.582031-6.386719 1.195313-.617187 2.367188-1.269531 3.457032-1.886719 4.320312-2.402344 8.328124-4.636718 12.714843-4.714844l.253907-.003906c6.15625 0 11.707031 4.347656 16.789062 9.042969l1.703125 1.574219-52.65625 42.433594c-.472656.382812-.75.957031-.753906 1.570312-.003907.613281.257812 1.183594.726562 1.570312 10.773438 8.941407 24.523438 13.867188 38.722657 13.867188 3.617187 0 7.230468-.332031 10.738281-.980469 15.050781-2.796875 28.878906-11.585937 37.933593-24.117187l1.714844-2.371094 1.585938 2.460938c5.488281 8.519531 13.175781 15.558593 22.226562 20.355468l.769532.40625.222656.839844c.074218.265625.203125.515625.382812.742188l36.378906 44.707031c1.9375 2.386719 3.804688 4.921875 3.515626 7.402343-.265626 2.175782-2.164063 4.042969-3.984376 5.585938-12.082031 10.324219-23.355468 17.203125-39.085937 17.203125zm0 0"
     fill="#ffd2bb"
     id="path34" />
  <path
     d="m66.316406 143.898438c-6.699218 0-13.128906-5.777344-13.753906-12.363282-.5-5.273437 2.21875-10.113281 7.269531-12.953125 2.386719-1.347656 5.039063-2.058593 7.660157-2.058593 2.96875 0 5.738281.894531 8.015624 2.585937 3.40625 2.546875 5.390626 7.300781 4.945313 11.832031-.675781 6.855469-7.003906 12.789063-13.820313 12.953125zm0 0"
     fill="#5bd0fc"
     id="path36" />
  <path
     d="m94.0625 180.347656c-.636719 0-1.671875-.144531-4.09375-1.285156l-71.3125-33.296875c-4.726562-2.207031-8.804688-4.332031-10.855469-7.984375-1.867187-3.332031-1.78125-7.625-1.707031-11.410156l2.140625-106.449219c.007813-.707031 0-1.488281-.011719-2.308594v-.117187c-.082031-5.640625.144532-10.050782 3.761719-11.199219.539063-.167969 1.148437-.253906 1.816406-.253906 3.460938 0 8.800781 2.285156 12.332031 3.800781l.128907.054688c1.722656.738281 3.351562 1.433593 4.722656 1.902343l47.804687 16.097657c.980469.332031 3.476563 1.070312 7.253907 2.179687l.183593.058594c12.644532 3.726562 30.15625 8.980469 36.238282 11.609375l1.480468.640625-26.164062 132.503906c-.628906 3.210937-1.355469 4.679687-2.582031 5.226563-.335938.152343-.71875.230468-1.136719.230468zm-26.582031-67.878906c-3.324219 0-6.65625.886719-9.636719 2.566406-6.402344 3.597656-9.976562 10.066406-9.332031 16.878906.828125 8.699219 8.992187 16.050782 17.828125 16.050782.035156 0 .230468 0 .292968-.007813 9.003907-.210937 16.972657-7.664062 17.859376-16.621093.601562-5.992188-1.972657-12.066407-6.554688-15.480469-2.972656-2.214844-6.585938-3.386719-10.457031-3.386719zm0 0"
     fill="#288fc9"
     id="path38" />
  <path
     d="m447.746094 147.070312c4.761718-6.09375 8.410156-13.015624 10.839844-20.570312l.46875-1.449219 1.519531.0625c1.238281.054688 2.375.078125 3.476562.078125 13.195313 0 26.433594-2.984375 38.28125-8.632812l2.675781-1.277344.179688 2.960938c.25 4.105468.460938 8.09375.621094 11.84375l.066406 1.507812-62.210938 20.699219zm0 0"
     fill="#939baa"
     id="path40" />
  <path
     d="m464.082031 121.117188c-.523437 0-1.046875-.003907-1.570312-.015626l-2.382813-.042968.460938-2.339844c.90625-4.640625 1.328125-9.390625 1.25-14.121094l-.015625-1.082031.894531-.609375c10.101562-6.855469 22.445312-10.632812 34.753906-10.632812 1.332032 0 2.675782.042968 3.996094.132812l1.695312.117188.160157 1.691406c.527343 5.617187.953125 10.625 1.292969 15.3125l.101562 1.402344-1.285156.570312c-.085938.039062-.171875.070312-.257813.101562-11.925781 6.226563-25.441406 9.515626-39.09375 9.515626zm0 0"
     fill="#939baa"
     id="path42" />
  <path
     d="m461.125 95.796875c-.550781-3.613281-1.484375-7.246094-2.78125-10.796875l-.859375-2.355469 2.484375-.316406c13.667969-1.730469 26.75-7.777344 36.839844-17.027344l2.828125-2.589843.507812 3.796874c.898438 6.695313 1.691407 13.28125 2.355469 19.566407l.246094 2.320312-2.332032-.113281c-1.035156-.050781-2.085937-.074219-3.121093-.074219-11.652344 0-23.125 3.117188-33.179688 9.011719l-2.542969 1.496094zm0 0"
     fill="#939baa"
     id="path44" />
  <path
     d="m455.03125 77.503906c-2.558594-4.867187-5.710938-9.292968-9.371094-13.152344l-1.578125-1.667968 1.863281-1.335938c7.300782-5.234375 16.804688-6.929687 23.316407-7.75 2.550781-.320312 5.210937-.578125 7.554687-.804687 6.148438-.609375 12.507813-1.238281 18.652344-2.871094l2.136719-.570313.351562 2.1875c.3125 1.949219.613281 3.910157.894531 5.871094l.269532 1.871094-1.855469.375c-.386719.074219-.738281.265625-1.015625.550781-10.300781 10.433594-24.617188 17.125-39.28125 18.359375l-1.320312.113282zm0 0"
     fill="#939baa"
     id="path46" />
  <path
     d="m439.820312 59.027344c-2.757812-2.152344-5.714843-3.988282-8.789062-5.449219l-3.660156-1.738281 64.667968-33.101563.523438 2.589844c1.453125 7.230469 2.835938 14.699219 4.101562 22.203125l.296876 1.769531-1.726563.484375c-6.082031 1.71875-12.558594 2.347656-18.820313 2.957032-2.363281.234374-5.050781.5-7.65625.824218-7.4375.9375-18.277343 2.9375-26.460937 9.449219l-1.234375.984375zm0 0"
     fill="#939baa"
     id="path48" />
  <path
     d="m404.242188 134.820312c-.925782 0-1.851563-.0625-2.75-.183593-8.511719-1.148438-16.082032-8.375-17.992188-17.179688-1.886719-8.671875 1.347656-15.53125 4.390625-19.761719 5.121094-7.09375 13.710937-12.089843 22.425781-13.039062.636719-.066406 1.28125-.101562 1.917969-.101562 5.730469 0 11.128906 2.6875 15.195313 7.570312 5.054687 6.050781 6.929687 14.101562 4.890624 21.007812-1.773437 5.992188-5.960937 11.625-11.792968 15.859376-5.25 3.8125-10.882813 5.828124-16.285156 5.828124zm0 0"
     fill="#939baa"
     id="path50" />
  <path
     d="m230.628906 96.402344c-1.625-1.472656-3.429687-2.886719-5.371094-4.203125l-2.234374-1.515625 24.363281-19.648438c4.160156-3.34375 8.878906-7.132812 14.292969-8.15625 1.070312-.203125 2.21875-.304687 3.410156-.304687 3.769531 0 7.589844.984375 11.285156 1.933593l21.640625 5.605469.285156 1.152344c.035157.132813.054688.253906.066407.375.933593 3.832031 1.394531 7.859375 1.375 11.972656l-.019532 3.710938-3.089844-2.058594c-7.613281-5.066406-16.878906-7.859375-26.089843-7.859375-2.453125 0-4.898438.199219-7.277344.589844-11.695313 1.921875-22.519531 8.527344-29.691406 18.121094l-1.316407 1.765624zm0 0"
     fill="#939baa"
     id="path52" />
  <path
     d="m282.882812 119.011719c-4.621093-4.460938-8.339843-9.554688-11.058593-15.132813-.335938-.691406-1.003907-1.125-1.757813-1.144531-.804687 0-1.472656.390625-1.84375 1.042969-.800781 1.425781-1.707031 2.867187-2.765625 4.394531l-1.203125 1.734375-1.667968-1.292969c-3.640626-2.828125-8.246094-4.386719-12.976563-4.386719-3.042969 0-6.042969.667969-8.6875 1.929688l-1.5625.75-.960937-1.441406c-.667969-1-1.429688-2.039063-2.40625-3.269532l-.917969-1.160156.839843-1.21875c6.425782-9.324218 16.898438-15.984375 28.011719-17.816406 2.179688-.359375 4.417969-.542969 6.664063-.542969 9.757812 0 19.25 3.3125 26.726562 9.324219.085938.070312.214844.148438.382813.230469l1.386719.667969-.289063 1.511718c-1.902344 9.839844-6.421875 18.746094-13.074219 25.757813l-1.390625 1.464843zm0 0"
     fill="#939baa"
     id="path54" />
  <path
     d="m245.527344 122.804688c-.703125-3.617188-1.84375-7.167969-3.386719-10.550782l-.84375-1.855468 1.871094-.808594c1.988281-.863282 4.152343-1.304688 6.425781-1.304688 3.757812 0 7.429688 1.210938 10.335938 3.414063l1.777343 1.34375-1.527343 1.621093c-3.421876 3.625-7.335938 6.808594-11.636719 9.460938l-2.460938 1.519531zm0 0"
     fill="#939baa"
     id="path56" />
  <path
     d="m497.425781 14.894531c-.257812-1.230469-1.074219-2.269531-2.207031-2.8125s-2.457031-.523437-3.574219.050781l-69.234375 35.429688c-.367187.1875-.675781.4375-.960937.710938-3.027344-.609376-6.167969-.925782-9.417969-.875-20.535156.316406-43.078125 15.566406-54.992188 31.730468l-79.074218-20.46875c-5-1.292968-11.222656-2.902344-17.410156-1.738281-6.941407 1.3125-12.554688 5.835937-17.0625 9.46875l-6.761719 5.449219c-6.34375-5.953125-13.28125-11.644532-22.152344-11.464844-5.914063.117188-11.027344 2.972656-15.539063 5.492188-1.097656.613281-2.1875 1.222656-3.289062 1.792968-10.226562 5.289063-22.296875 6.964844-33.597656 4.761719l1.359375-4.445313c.578125-1.894531-.304688-3.925781-2.082031-4.796874l-32.28125-15.839844.957031-4.855469c.050781-.257813.074219-.515625.074219-.78125 0-3.585937-2.445313-4.964844-17.449219-9.828125-8.214844-2.667969-18.1875-5.609375-24.785157-7.554688-3.539062-1.046874-6.335937-1.871093-7.21875-2.167968l-47.808593-16.101563c-1.167969-.394531-2.722657-1.058593-4.367188-1.765625-5.734375-2.460937-12.867187-5.519531-18.398437-3.765625-8.207032 2.605469-8.074219 11.660157-7.996094 17.070313.015625.785156.027344 1.53125.011719 2.214844l-2.136719 106.4375c-.0859375 4.335937-.195312 9.734374 2.480469 14.503906 3.167969 5.652344 9.1875 8.460937 13.582031 10.515625l71.3125 33.300781c1.523438.710938 3.957031 1.847656 6.667969 1.847656 1.1875 0 2.421875-.214844 3.660156-.777344 2.9375-1.34375 4.382813-3.949218 5.171875-6.277343l20.503906 6.226562c.390625.117188.785156.175781 1.171875.175781 1.550781 0 2.988281-.90625 3.652344-2.351562 8.996094 8.398438 20.277344 14.152344 32.382813 16.464844-.273438 2.65625-.078126 5.355468.660156 7.957031 2.679687 9.433594 12.101562 16.246094 21.8125 16.246094.945312 0 1.894531-.0625 2.835937-.195313.347657-.050781.671875-.15625.980469-.28125.332031.410156.652344.832032 1.011719 1.222656 5.003906 5.441407 12.363281 8.265626 19.695312 8.265626 5.542969 0 11.066407-1.628907 15.550781-4.941407 3.882813 3.800781 8.765626 6.363281 13.980469 7.179688 1.171875.1875 2.351563.273437 3.519531.273437 6.75 0 13.285157-2.976562 17.417969-7.992187 4.019531 2.769531 8.738281 4.207031 13.289063 4.207031 4.03125 0 7.929687-1.117188 11.085937-3.40625 4.046875-2.933594 6.597657-7.964844 7.957031-13.636719.101563.007813.203126.035157.3125.039063.371094.003906.742188.007812 1.113282.007812 18.625 0 31.710937-8.960937 43.082031-18.679687 2.234375-1.910157 4.8125-4.488281 5.753906-7.953125 15.886719-.714844 31.570313-7.332032 43.132813-18.253906.289062-.273438.511718-.589844.703125-.917969 5.585937 1.671875 11.449219 2.527343 17.347656 2.527343 11.34375 0 22.800781-3.121093 32.578125-9.492187.875-.570313 1.730469-1.171875 2.570312-1.785156.296876.066406.601563.113281.914063.113281.421875 0 .847656-.0625 1.269531-.203125l70.050782-23.300781c1.699218-.566406 2.824218-2.191406 2.753906-3.984375-1.546875-39.550781-6.449219-79.25-14.570313-117.992188zm-.550781 42.796875c-.753906.15625-1.476562.523438-2.058594 1.113282-10.046875 10.183593-23.773437 16.566406-38.015625 17.773437-2.589843-4.933594-5.851562-9.554687-9.691406-13.605469 6.851563-4.914062 15.890625-6.570312 22.402344-7.386718 2.46875-.3125 5.027343-.5625 7.5-.804688 6.253906-.613281 12.6875-1.257812 18.972656-2.925781.304687 1.941406.601563 3.886719.890625 5.835937zm1.285156 9.082032c.875 6.492187 1.660156 12.996093 2.351563 19.507812-13.09375-.625-26.136719 2.597656-37.414063 9.214844-.570312-3.75-1.539062-7.507813-2.871094-11.183594 14.046876-1.777344 27.488282-7.964844 37.933594-17.539062zm-34.316406 37.789062c10.835938-7.363281 24.417969-11.046875 37.488281-10.160156.484375 5.085937.917969 10.179687 1.289063 15.273437-.09375.039063-.1875.0625-.277344.109375-12.109375 6.335938-26.085938 9.578125-39.792969 9.320313.929688-4.757813 1.375-9.632813 1.292969-14.542969zm26.753906-82.835938c1.484375 7.347657 2.839844 14.730469 4.089844 22.136719-5.847656 1.652344-11.996094 2.257813-18.460938 2.894531-2.527343.246094-5.140624.503907-7.71875.828126-7.84375.984374-18.933593 3.089843-27.453124 9.867187-2.839844-2.21875-5.90625-4.128906-9.164063-5.679687zm-166.578125 138.089844c10.757813-2.742187 21.191407-7.382812 30.421875-13.539062 1.859375 3.015625 4.011719 5.832031 6.4375 8.40625-11.035156 1.9375-21.625 6.171875-30.957031 12.386718zm26.675781-20.757812c-9.296874 6.335937-19.957031 11.003906-30.921874 13.488281-.453126.101563-.863282.292969-1.234376.527344l-11.480468-14.109375c4.394531 1.003906 8.917968 1.503906 13.445312 1.503906 9.757813 0 19.546875-2.308594 28.167969-6.773438.589844 1.824219 1.265625 3.613282 2.023437 5.363282zm1.753907-52.667969c-6.34375 12.101563-8.117188 26.140625-5.785157 39.222656-12.324218 7.011719-27.734374 8.726563-41.292968 4.566407-5.308594-1.628907-10.339844-4.171876-14.882813-7.417969 11.972657-12.886719 17.46875-31.429688 14.546875-48.761719l47.46875 12.285156c-.015625.035156-.039062.070313-.054687.105469zm-132.703125 9.492187c10.761718 6.347657 18.527344 18.03125 20.222656 30.40625-3.484375 1.460938-7.117188 2.570313-10.847656 3.261719-13.984375 2.59375-28.777344-.601562-40.496094-8.585937zm27.75 26.539063c-.746094-3.800781-1.9375-7.492187-3.535156-11 4.75-2.058594 10.636718-1.25 14.761718 1.875-3.324218 3.519531-7.109375 6.589844-11.226562 9.125zm18.988281-19.632813c-.820313 1.464844-1.726563 2.871094-2.675781 4.246094-6.636719-5.164062-16.085938-6.34375-23.75-2.683594-.78125-1.171874-1.621094-2.296874-2.496094-3.402343 6.140625-8.90625 16.007812-15.214844 26.6875-16.972657 11.128906-1.832031 23.023438 1.296876 31.8125 8.363282.242188.191406.5.347656.765625.476562-1.769531 9.214844-6.089844 17.933594-12.5625 24.761719-4.351563-4.21875-8.003906-9.15625-10.640625-14.578125-.65625-1.347656-2.007812-2.222656-3.507812-2.265625-1.507813-.035156-2.898438.746094-3.632813 2.054687zm-17.929687-30.121093c4.003906-3.226563 8.542968-6.886719 13.496093-7.820313 4.410157-.835937 9.230469.414063 13.894531 1.621094l20.417969 5.285156c.011719.074219.011719.152344.03125.230469.9375 3.804687 1.363281 7.710937 1.339844 11.617187-10.105469-6.722656-22.816406-9.550781-34.796875-7.582031-12.21875 2.011719-23.554688 8.996094-30.96875 18.90625-1.75-1.59375-3.625-3.054687-5.59375-4.386719zm-152.730469 101.835937c-.589844 2.996094-1.15625 3.660156-1.4375 3.792969-.3125.140625-1.183594.074219-3.570313-1.039063l-71.3125-33.304687c-4.410156-2.058594-8.203125-4.015625-9.960937-7.148437-1.601563-2.859376-1.519531-6.867188-1.449219-10.402344l2.136719-106.4375c.015625-.769532.003906-1.609375-.011719-2.492188-.082031-5.621094.261719-8.597656 2.375-9.269531.34375-.109375.753906-.160156 1.210938-.160156 3.054687 0 8.273437 2.238281 11.566406 3.652343 1.796875.773438 3.5 1.5 4.96875 1.996094l47.8125 16.105469c1.027344.34375 3.605468 1.105469 7.507812 2.257813 8.453125 2.496093 29.433594 8.6875 36.007813 11.527343zm26.074219 2.191406-17.253907-5.238281 22.886719-115.929687 27.265625 13.378906zm133.589843 6.929688c2.566407-2.527344 5.683594-3.21875 8.328125-3.21875 1.4375 0 2.734375.203125 3.722656.425781 6.492188 1.476563 12.386719 6.273438 14.332032 11.671875.058594.167969.117187.34375.175781.519532-.59375.207031-1.152344.542968-1.613281 1.03125-6.988282 7.472656-19.457032 9.5625-28.527344 4.835937-.558594-4.855469-.367188-11.367187 3.582031-15.265625zm-11.082031 19.566406c-.605469.035156-1.214844.195313-1.78125.523438-5.585938 3.253906-13.230469 2.992187-18.578125-.636719-.335937-.226563-.695313-.378906-1.058594-.492187-.078125-.179688-.152343-.359376-.257812-.53125-.015625-.023438-.03125-.039063-.042969-.058594.085938-.59375.171875-1.1875.292969-1.78125 1.21875-5.910156 4.1875-10.507813 8.140625-12.613282 3.941406-2.097656 10.78125-1.027343 12.9375 1.890626-.820313 4.730468-.414063 9.613281.347656 13.699218zm-29.320312-4.605468c-.242188 1.167968-.417969 2.335937-.542969 3.5-7.578125 3.285156-17.054688 2.246093-23.558594-2.863282-.039063-.03125-.085937-.046875-.125-.078125.726563-1.683593 1.691406-3.253906 2.921875-4.613281 5.730469-6.300781 16.441406-7.566406 23.621094-3.035156-1.007813 2.175781-1.792969 4.550781-2.316406 7.089844zm-32.347657-.765626c-4.050781.023438-8.054687-2.449218-9.828125-6.0625-.027344-.054687-.0625-.097656-.089844-.148437 1.210938-1.265625 2.636719-2.308594 4.230469-3.007813 2.074219-.910156 4.15625-1.1875 5.851563-.777343 1.601562.382812 2.964844 1.492187 3.394531 2.757812.027344.089844.078125.164063.109375.25-1.589844 2.121094-2.808594 4.488281-3.667969 6.988281zm-13.707031 7.804688c-.539062-1.898438-.59375-3.90625-.269531-5.863281 3.242187 3.464843 7.761719 5.703125 12.515625 6.070312-.128906 3.445313.355468 6.914063 1.472656 10.164063-6.058594-.148438-12.058594-4.523438-13.71875-10.371094zm24.820312 13.738281c-2.847656-3.097656-4.347656-7.300781-4.53125-11.574219 4.828126 2.828126 10.367188 4.289063 15.921876 4.289063 3.175781 0 6.34375-.488281 9.386718-1.433594.515625 3.839844 1.679688 7.503907 3.472656 10.800781.054688.097657.113282.191407.167969.289063-7.136719 5.1875-18.4375 4.128906-24.417969-2.371094zm44.542969 7.996094c-5.328125-.835937-10.390625-4.578125-13.207031-9.761719-.992188-1.824218-1.714844-3.808594-2.183594-5.894531 3.398438 1.566406 7.136719 2.359375 10.878906 2.359375 4.34375 0 8.6875-1.074219 12.5-3.21875 1.46875 4.34375 3.417969 8.078125 5.839844 11.171875-2.964844 3.980469-8.550781 6.171875-13.828125 5.34375zm39.324219-5.476563c-4.824219 3.496094-12.136719 1.757813-16.417969-1.945312-3.125-2.699219-5.539062-6.597656-7.242187-11.59375 2.792968.769531 5.683594 1.15625 8.582031 1.15625 7.527344 0 15.070313-2.542969 20.886719-7.328125.308594 7.816406-1.402344 16.511719-5.808594 19.710937zm51.964844-31.875c-11.828125 10.109376-22.882813 16.828126-38.132813 16.730469.347657-6.226562-.464843-12.433593-2.09375-16.96875-2.871093-7.96875-10.964843-14.71875-20.136719-16.800781-7.5-1.699219-14.605468.09375-19.496093 4.917969-1.109375 1.097656-2.023438 2.289062-2.796875 3.539062-5.660156-3.691406-14.136719-3.902343-19.691406-.941406-2.027344 1.074219-3.863282 2.53125-5.488282 4.292969-8.734375-5.597656-20.730468-5.257813-29.351562.390625-1.75-2.519531-4.5-4.414063-7.707032-5.183594-3.453124-.832031-7.246093-.40625-10.980468 1.234375-4.859375 2.132812-8.683594 6.125-10.964844 10.859375-12.179688-2.167969-23.46875-8.289063-31.910156-17.355469l28.855468-94.546875c3.992188.835938 8.078126 1.257813 12.167969 1.257813 9.519531 0 19.054688-2.246094 27.5-6.613282 1.171875-.605468 2.339844-1.257812 3.511719-1.914062 4.046875-2.257812 7.867188-4.390625 11.765625-4.46875 5.566406-.105469 10.765625 3.992188 15.652344 8.515625l-50.847657 40.980469c-.941406.757812-1.492187 1.898437-1.5 3.109375-.011718 1.210937.523438 2.359375 1.457032 3.132812 14.042968 11.660157 33.144531 16.632813 51.09375 13.304688 15.671875-2.90625 29.890625-12.039063 39.191406-24.90625 5.671875 8.796875 13.707031 16.132812 22.96875 21.039062.144531.523438.390625 1.023438.753906 1.46875l36.386719 44.722657c1.597656 1.964843 3.285156 4.203124 3.078125 5.90625-.179688 1.472656-1.847656 3.070312-3.285156 4.296874zm10.113281-9.847656c-1.050781-2.238281-2.550781-4.089844-3.652344-5.445312l-1.113281-1.367188c9.429688-6.132812 20.246094-10.042968 31.429688-11.339844.738281-.085937 1.390624-.375 1.945312-.792968 2.492188 1.769531 5.125 3.324218 7.878906 4.640625-10.074218 8.65625-23.222656 13.832031-36.488281 14.304687zm28.832031-29.117187c-15.683594-14.632813-19.570312-40.816407-9.039062-60.90625 8.464844-16.148438 32.132812-34.359375 52.566406-34.675781.160156-.003907.324219-.003907.488281-.003907 13.910157 0 29.421875 9.199219 37.523438 25.417969 0 .019531-.003907.035156-.003907.050781.042969 1.132813.554688 2.132813 1.339844 2.839844 1.703125 4.019531 2.96875 8.425781 3.664063 13.1875 3.300781 22.558594-7.03125 46.546875-25.128907 58.335937-18.773437 12.234376-45.746093 10.367188-61.410156-4.246093zm80.6875-2.738281c4.90625-6.269532 8.695313-13.476563 11.171875-21.1875 1.1875.046874 2.375.078124 3.566407.078124 13.4375 0 27.035156-3.0625 39.140624-8.828124.238282 3.9375.449219 7.875.621094 11.8125zm0 0"
     id="path58"
     fill="#231f20" />
  <path
     d="m432.085938 88.234375c-5.855469-7.011719-14.03125-10.515625-22.425782-9.601563-10.527344 1.136719-20.503906 6.9375-26.683594 15.511719-5.324218 7.386719-7.242187 16.121094-5.402343 24.597657 2.476562 11.394531 11.976562 20.398437 23.109375 21.902343 1.167968.160157 2.351562.238281 3.546875.238281 6.636719 0 13.570312-2.417968 19.859375-6.984374 6.902344-5.007813 11.886718-11.769532 14.039062-19.042969 2.613282-8.820313.296875-19.023438-6.042968-26.621094zm-1.6875 24.332031c-1.652344 5.578125-5.574219 10.835938-11.046876 14.808594-5.734374 4.160156-11.988281 6.035156-17.589843 5.28125-7.710938-1.042969-14.566407-7.613281-16.308594-15.625-1.730469-7.960938 1.257813-14.273438 4.0625-18.171875 4.792969-6.648437 12.84375-11.328125 21.011719-12.214844 5.675781-.613281 11.273437 1.847657 15.367187 6.757813 4.632813 5.550781 6.359375 12.898437 4.503907 19.164062zm0 0"
     fill="#231f20"
     id="path60" />
  <path
     d="m79.128906 114.25c-6.261718-4.667969-15.003906-5.042969-22.269531-.957031-7.097656 3.988281-11.054687 11.195312-10.332031 18.808593.925781 9.773438 9.945312 17.859376 19.816406 17.859376.140625 0 .285156-.003907.429688-.007813 9.886718-.234375 18.730468-8.5 19.714843-18.417969.660157-6.671875-2.230469-13.457031-7.359375-17.285156zm-.664062 16.488281c-.585938 5.90625-6.027344 11.015625-11.882813 11.15625-5.722656.160157-11.492187-4.894531-12.027343-10.554687-.425782-4.457032 1.914062-8.578125 6.253906-11.019532 2.132812-1.199218 4.441406-1.792968 6.679687-1.792968 2.480469 0 4.871094.730468 6.820313 2.1875 2.867187 2.136718 4.535156 6.167968 4.15625 10.023437zm0 0"
     fill="#231f20"
     id="path62" />
  <g
     id="g6"
     transform="matrix(0.43945321,0,0,0.43945321,287.72211,148.04335)">
    <g
       id="g4">
      <path
         inkscape:connector-curvature="0"
         d="m 256,151 c -57.897,0 -105,47.103 -105,105 0,57.897 47.103,105 105,105 57.897,0 105,-47.103 105,-105 0,-57.897 -47.103,-105 -105,-105 z m 0,180 c -41.355,0 -75,-33.645 -75,-75 0,-41.355 33.645,-75 75,-75 41.355,0 75,33.645 75,75 0,41.355 -33.645,75 -75,75 z"
         id="path2-1"
         style="fill:#00a0e4;fill-opacity:1;stroke:#00a0e4;stroke-opacity:1" />
    </g>
  </g>
  <g
     id="g12"
     transform="matrix(0.43945321,0,0,0.43945321,287.72211,148.04335)">
    <g
       id="g10">
      <path
         inkscape:connector-curvature="0"
         d="m 500.582,211.434 -58.674,-14.428 c -3.532,-11.13 -8.068,-21.925 -13.551,-32.249 8.78,-14.634 27.343,-45.573 27.343,-45.573 3.541,-5.902 2.611,-13.457 -2.256,-18.324 L 411.018,58.434 c -4.867,-4.867 -12.422,-5.797 -18.324,-2.256 -0.38,0.228 -30.777,18.466 -45.626,27.355 C 336.799,78.102 326.073,73.606 315.016,70.099 310.588,52.123 300.565,11.413 300.564,11.413 298.914,4.711 292.902,0 286,0 h -60 c -6.903,0 -12.915,4.711 -14.565,11.414 -4.126,16.76 -11.024,44.779 -14.45,58.68 -11.762,3.73 -23.143,8.578 -34.001,14.482 -6.428,-3.856 -16.007,-9.604 -24.869,-14.921 L 115.653,56.178 c -5.905,-3.541 -13.457,-2.61 -18.324,2.256 L 54.901,100.86 c -4.867,4.867 -5.797,12.422 -2.256,18.324 0.2,0.335 17.785,29.644 29.271,48.869 -4.712,9.31 -8.665,18.986 -11.817,28.919 -20.002,4.976 -58.223,14.35 -58.671,14.46 C 4.718,213.077 0,219.092 0,226 v 60 c 0,6.909 4.719,12.923 11.429,14.568 0.443,0.109 38.381,9.411 58.687,14.436 3.565,11.302 8.184,22.273 13.796,32.78 l -26.194,43.66 c -3.541,5.902 -2.611,13.458 2.256,18.324 l 42.427,42.427 c 4.867,4.868 12.421,5.797 18.324,2.256 0.369,-0.222 29.463,-17.678 43.746,-26.227 10.419,5.547 21.313,10.131 32.547,13.692 l 14.416,58.66 C 213.079,507.284 219.093,512 226,512 h 60 c 6.904,0 12.917,-4.713 14.566,-11.418 l 14.427,-58.669 c 11.539,-3.661 22.671,-8.39 33.257,-14.128 14.427,8.656 44.444,26.667 44.444,26.667 5.901,3.541 13.457,2.612 18.324,-2.256 l 42.426,-42.427 c 4.867,-4.867 5.797,-12.422 2.256,-18.324 0,0 -18.271,-30.452 -26.958,-44.931 5.308,-10.088 9.712,-20.634 13.161,-31.511 17.824,-4.399 58.19,-14.317 58.676,-14.436 C 507.285,298.919 512,292.906 512,286 v -60 c 0,-6.905 -4.713,-12.917 -11.418,-14.566 z M 482,274.24 c -17.32,4.257 -48.723,11.979 -54.72,13.479 l -1.131,0.283 c -5.231,1.36 -9.326,5.43 -10.719,10.653 -3.795,14.229 -9.495,27.872 -16.942,40.548 -2.779,4.732 -2.753,10.605 0.069,15.312 0.78,1.301 16.489,27.483 25.393,42.322 L 398.087,422.7 c -15.046,-9.027 -41.716,-25.029 -41.942,-25.165 -4.775,-2.866 -10.743,-2.853 -15.501,0.035 -13,7.885 -27.109,13.892 -41.938,17.854 -5.177,1.383 -9.224,5.422 -10.614,10.597 -0.828,3.081 -1.644,6.34 -1.658,6.397 L 274.241,482 h -36.479 l -10.813,-44.042 -2.916,-11.664 c -1.322,-5.292 -5.415,-9.45 -10.686,-10.855 -14.533,-3.876 -28.479,-9.747 -41.449,-17.447 -4.709,-2.797 -10.57,-2.802 -15.285,-0.018 -3.23,1.908 -27.254,16.313 -41.282,24.728 l -25.865,-25.865 24.661,-41.104 c 2.841,-4.736 2.85,-10.65 0.022,-15.395 -7.784,-13.063 -13.685,-27.073 -17.535,-41.643 -1.397,-5.286 -5.56,-9.393 -10.863,-10.719 -10.737,-2.684 -39.564,-9.767 -55.752,-13.741 v -36.473 c 16.342,-4.015 45.537,-11.199 55.762,-13.786 5.271,-1.334 9.408,-5.417 10.812,-10.671 3.564,-13.347 8.822,-26.228 15.63,-38.286 2.646,-4.686 2.578,-10.43 -0.177,-15.053 -7.25,-12.166 -20.08,-33.577 -27.632,-46.172 l 25.865,-25.866 12.42,7.452 c 14.968,8.981 31.98,19.188 32.44,19.463 4.768,2.85 10.722,2.832 15.472,-0.049 13.341,-8.088 27.726,-14.222 42.756,-18.232 5.264,-1.404 9.352,-5.552 10.68,-10.836 0.282,-1.121 9.071,-36.815 13.728,-55.726 h 36.49 c 4.915,19.958 13.621,55.312 13.724,55.722 1.326,5.288 5.417,9.44 10.685,10.845 14.382,3.836 28.193,9.626 41.05,17.208 4.714,2.781 10.57,2.773 15.276,-0.021 4.208,-2.498 28.881,-17.293 43.106,-25.827 l 25.864,25.864 c -9.037,15.062 -25.121,41.869 -25.795,42.991 -2.836,4.725 -2.853,10.625 -0.043,15.367 7.628,12.872 13.451,26.714 17.308,41.141 1.382,5.167 5.408,9.207 10.57,10.604 3.097,0.839 6.373,1.657 6.428,1.671 L 482,237.758 Z"
         id="path8-0"
         style="stroke:#00a0e4;stroke-opacity:1;fill:#00a0e4;fill-opacity:1" />
    </g>
  </g>
  <path
     style="fill:#00a0e4;fill-opacity:1;stroke:#00a0e4;stroke-width:3.86535358;stroke-miterlimit:4;stroke-dasharray:none;stroke-opacity:1"
     d="m 519.22047,646.57433 c -2.71115,-11.60428 -4.65559,-17.79873 -6.06978,-19.33673 -1.14442,-1.24461 -5.30229,-3.29093 -9.23971,-4.5474 -3.93743,-1.25647 -10.71544,-4.06042 -15.06225,-6.23098 -4.34681,-2.17057 -8.51527,-3.94649 -9.26326,-3.94649 -0.74798,0 -7.27458,3.45164 -14.50356,7.67031 -7.22897,4.21867 -13.42777,7.67031 -13.7751,7.67031 -0.34733,0 -3.77322,-3.16597 -7.61308,-7.03548 l -6.98157,-7.03548 7.77603,-13.08711 c 4.27681,-7.19792 7.77603,-14.08741 7.77603,-15.30998 0,-1.22257 -1.59636,-5.23101 -3.54746,-8.90766 -1.9511,-3.67665 -4.75589,-10.30411 -6.23286,-14.72771 -1.47697,-4.4236 -3.36068,-8.8009 -4.18603,-9.72733 -0.88193,-0.98993 -8.64282,-3.46439 -18.8235,-6.00165 l -17.32285,-4.31724 v -10.40656 -10.40657 l 16.54999,-4.04595 c 9.1025,-2.22527 17.60622,-4.87661 18.89717,-5.89187 1.29094,-1.01526 3.03888,-4.17516 3.8843,-7.022 0.84542,-2.84684 3.43107,-9.28758 5.74589,-14.31275 2.87336,-6.2377 4.01396,-9.91285 3.5948,-11.5829 -0.33768,-1.34542 -3.56866,-7.36537 -7.17997,-13.37767 l -10.56469,-16.59021 6.4784,-4.52361 c 2.62945,-2.08473 3.43731,-3.40531 5.54518,-5.74707 2.10788,-2.34176 -2.22115,-7.86971 5.32166,-5.02477 3.78749,1.42853 9.38389,7.61917 14.97059,10.99411 6.68215,4.0367 11.25521,6.13625 13.36547,6.13625 1.76432,0 6.76432,-1.77592 11.11113,-3.94649 4.34681,-2.17057 11.0045,-4.96765 14.79487,-6.21574 3.94164,-1.29789 7.67923,-3.27059 8.73168,-4.60857 1.01208,-1.28664 2.9185,-6.90737 4.2365,-12.49053 l 5.30448,-23.67163 10.47925,0.52271 10.90161,-0.52271 5.47008,24.13668 c 1.3152,5.80332 3.26778,11.4109 4.23923,12.48434 0.97144,1.07343 4.81927,2.94915 8.55071,4.16826 3.73145,1.2191 10.44141,4.03961 14.91105,6.2678 5.70841,2.84574 8.94041,3.88848 10.86152,3.50426 1.5042,-0.30085 8.20216,-3.84242 14.88433,-7.87016 6.68218,-4.02775 12.41371,-7.48001 12.73673,-7.67169 0.32302,-0.19168 3.87542,2.96525 7.89421,7.01541 l 7.30689,7.36393 -8.14988,13.74139 c -4.48244,7.55777 -8.14989,14.40113 -8.14989,15.20747 0,0.80634 2.02729,5.66796 4.50509,10.8036 2.4778,5.13564 5.25529,11.92709 6.17219,15.09212 0.91691,3.16503 2.54623,6.55019 3.62071,7.52259 1.07746,0.97508 9.66125,3.69663 19.13984,6.0684 l 17.18622,4.30042 0.29007,10.29511 0.29006,10.29511 -16.44176,3.8966 c -9.04297,2.14313 -17.68755,4.65429 -19.21016,5.58036 -2.07593,1.26258 -3.37638,3.58106 -5.19893,9.26872 -1.33678,4.17173 -3.98304,10.67995 -5.88057,14.46271 -1.89753,3.78276 -3.45006,8.31993 -3.45006,10.0826 0,2.17757 2.47973,7.31945 7.73607,16.04125 l 7.73608,12.8364 -6.94161,6.99521 c -3.8179,3.84737 -7.32363,6.99521 -7.79052,6.99521 -0.46691,0 -6.65805,-3.45164 -13.75811,-7.67031 -7.10005,-4.21867 -13.75893,-7.67031 -14.79751,-7.67031 -1.03858,0 -5.44482,1.78573 -9.79162,3.96829 -4.34681,2.18255 -10.20438,4.72698 -13.01683,5.65429 -9.15684,3.01912 -10.81527,3.92179 -12.17941,6.62912 -0.73949,1.46762 -3.1189,9.91684 -5.28758,18.77605 l -3.94306,16.10765 h -10.32697 -10.32696 z m 28.92628,-55.03122 c 17.13802,-4.04074 33.24204,-17.11882 40.92335,-33.23391 2.27896,-4.78116 4.64524,-11.13182 5.25841,-14.11258 2.72579,-13.25082 0.23304,-30.14536 -6.2645,-42.45745 -4.9332,-9.34784 -16.79908,-20.78988 -26.508,-25.56116 -15.87142,-7.79974 -32.58036,-8.78983 -48.74892,-2.88862 -30.25542,11.04264 -46.97514,42.33423 -39.09112,73.16048 2.94203,11.50319 7.49919,19.39351 16.35403,28.31548 8.31203,8.37505 18.51901,14.32203 28.89215,16.83372 7.39814,1.79135 21.46403,1.76437 29.1846,-0.0559 z"
     id="path896"
     inkscape:connector-curvature="0"
     transform="matrix(0.75000015,0,0,0.75000015,0,-138)"
     sodipodi:nodetypes="ssscssssccssscscccscsscscccssssccscccsscscssscsssccscccsccsssccsssccsscccscscsssssccc" />
</svg>
