<?xml version="1.0" encoding="UTF-8" standalone="no"?>
<!-- Created with Inkscape (http://www.inkscape.org/) -->

<svg
   xmlns:dc="http://purl.org/dc/elements/1.1/"
   xmlns:cc="http://creativecommons.org/ns#"
   xmlns:rdf="http://www.w3.org/1999/02/22-rdf-syntax-ns#"
   xmlns:svg="http://www.w3.org/2000/svg"
   xmlns="http://www.w3.org/2000/svg"
   xmlns:sodipodi="http://sodipodi.sourceforge.net/DTD/sodipodi-0.dtd"
   xmlns:inkscape="http://www.inkscape.org/namespaces/inkscape"
   id="svg4638"
   version="1.1"
   inkscape:version="0.92.3 (2405546, 2018-03-11)"
   width="256"
   height="256"
   xml:space="preserve"
   sodipodi:docname="LogoNuevo_color_icono.svg"><metadata
     id="metadata4644"><rdf:RDF><cc:Work
         rdf:about=""><dc:format>image/svg+xml</dc:format><dc:type
           rdf:resource="http://purl.org/dc/dcmitype/StillImage" /><dc:title></dc:title></cc:Work></rdf:RDF></metadata><defs
     id="defs4642"><clipPath
       clipPathUnits="userSpaceOnUse"
       id="clipPath4654"><path
         d="M 0,0 H 1024 V 768 H 0 Z"
         id="path4656"
         inkscape:connector-curvature="0" /></clipPath><clipPath
       clipPathUnits="userSpaceOnUse"
       id="clipPath4666"><path
         d="M 198,329 H 825 V 439 H 198 Z"
         id="path4668"
         inkscape:connector-curvature="0" /></clipPath><clipPath
       clipPathUnits="userSpaceOnUse"
       id="clipPath4678"><path
         d="M 198,439 H 825 V 329 H 198 Z"
         id="path4680"
         inkscape:connector-curvature="0" /></clipPath><clipPath
       clipPathUnits="userSpaceOnUse"
       id="clipPath4684"><path
         d="M 198,329 H 825 V 439 H 198 Z"
         id="path4686"
         inkscape:connector-curvature="0" /></clipPath></defs><sodipodi:namedview
     pagecolor="#ffffff"
     bordercolor="#666666"
     borderopacity="1"
     objecttolerance="10"
     gridtolerance="10"
     guidetolerance="10"
     inkscape:pageopacity="0"
     inkscape:pageshadow="2"
     inkscape:window-width="1920"
     inkscape:window-height="1003"
     id="namedview4640"
     showgrid="false"
     inkscape:zoom="1.9666667"
     inkscape:cx="-14.627707"
     inkscape:cy="102.47463"
     inkscape:window-x="1920"
     inkscape:window-y="0"
     inkscape:window-maximized="1"
     inkscape:current-layer="g4646"
     fit-margin-left="0.3"
     fit-margin-top="0.3"
     fit-margin-right="0.3"
     fit-margin-bottom="0.3"
     units="px"
     inkscape:measure-start="110.085,59.7458"
     inkscape:measure-end="0,0" /><g
     id="g4646"
     inkscape:groupmode="layer"
     inkscape:label="opciones logo"
     transform="matrix(1.25,0,0,-1.25,-247.2,666.94962)"><g
       id="g4648" /><g
       id="g5249"
       inkscape:export-filename="/media/DATA_B/DATA/Proyecto Tarpuq/LOGOS/LogoNuevo_color.png"
       inkscape:export-xdpi="90"
       inkscape:export-ydpi="90"
       transform="matrix(1.2732869,0,0,1.3565231,-48.498686,-94.220544)"><path
         inkscape:connector-curvature="0"
         id="path4670"
         style="fill:#00a0e4;fill-opacity:1;fill-rule:nonzero;stroke:none"
         d="m 198,409.8587 v -8.6749 h 16.8607 V 356.588 h 9.4176 v 44.5958 h 16.8607 v 8.6749 z" /><path
         d="m 330.53085,368.01445 -9.1121,7.7607 5.9974,6.849 9.19,-8.3705 c 1.8248,2.8165 2.7338,6.2401 2.7338,9.9691 v 0.1527 c 0,10.349 -7.5184,18.9493 -18.0744,18.9493 -10.5585,0 -17.9229,-8.4485 -17.9229,-18.7975 v -0.1518 c 0,-10.3508 7.5184,-18.9494 18.0761,-18.9494 3.4913,0 6.606,0.9889 9.1121,2.5884 m 6.9115,-6.1664 c -4.4816,-3.1955 -9.9483,-5.0214 -16.1768,-5.0214 -16.3292,0 -27.7222,12.4047 -27.7222,27.3961 v 0.1527 c 0,14.9913 11.5462,27.5479 27.8754,27.5479 16.3275,0 27.7206,-12.4048 27.7206,-27.3961 v -0.1518 c 0,-6.0129 -1.8993,-11.7204 -5.394,-16.361 l 6.0787,-5.1758 -6.0025,-6.6973 z"
         style="fill:#00a1e4;fill-opacity:1;fill-rule:nonzero;stroke:none"
         id="path4694"
         inkscape:connector-curvature="0" /><path
         d="m 285.0959,425.2856 c 0,7.5741 -6.1286,13.7142 -13.6876,13.7142 -7.5599,0 -13.6877,-6.1401 -13.6877,-13.7142 0,-6.0519 3.9137,-11.1751 9.3381,-12.9967 v -67.6355 c 0,0 -0.2133,-3.7764 4.3479,-3.7764 4.1523,0 4.3512,3.7764 4.3512,3.7764 l -0.003,67.6346 c 5.4262,1.8209 9.3407,6.9449 9.3407,12.9976"
         style="fill:#00a1e4;fill-opacity:1;fill-rule:nonzero;stroke:none"
         id="path4696"
         inkscape:connector-curvature="0" /></g></g></svg>